<?xml version="1.0" encoding="us-ascii" standalone="no"?><svg xmlns="http://www.w3.org/2000/svg" xmlns:xlink="http://www.w3.org/1999/xlink" contentStyleType="text/css" height="346px" preserveAspectRatio="none" style="width:509px;height:346px;background:#FFFFFF;" version="1.1" viewBox="0 0 509 346" width="509px" zoomAndPan="magnify"><defs/><g><ellipse cx="254.5" cy="20" fill="#222222" rx="10" ry="10" style="stroke:#222222;stroke-width:1.0;"/><rect fill="#F1F1F1" height="36.3441" rx="12.5" ry="12.5" style="stroke:#181818;stroke-width:0.5;" width="84" x="212.5" y="50"/><text fill="#000000" font-family="sans-serif" font-size="12" lengthAdjust="spacing" textLength="64" x="222.5" y="72.8281">generic API</text><line style="stroke:#181818;stroke-width:1.5;" x1="119" x2="376.5" y1="106.3441" y2="106.3441"/><rect fill="#F1F1F1" height="36.3441" rx="12.5" ry="12.5" style="stroke:#181818;stroke-width:0.5;" width="216" x="11" y="126.3441"/><text fill="#000000" font-family="sans-serif" font-size="12" lengthAdjust="spacing" textLength="196" x="21" y="149.1722">generic-to-CBuilder transformation</text><rect fill="#F1F1F1" height="36.3441" rx="12.5" ry="12.5" style="stroke:#181818;stroke-width:0.5;" width="87" x="75.5" y="182.6882"/><text fill="#000000" font-family="sans-serif" font-size="12" lengthAdjust="spacing" textLength="67" x="85.5" y="205.5163">cbuilder API</text><rect fill="#F1F1F1" height="36.3441" rx="12.5" ry="12.5" style="stroke:#181818;stroke-width:0.5;" width="213" x="12.5" y="239.0323"/><text fill="#000000" font-family="sans-serif" font-size="12" lengthAdjust="spacing" textLength="193" x="22.5" y="261.8604">c-code of the Mini-Python program</text><rect fill="#F1F1F1" height="36.3441" rx="12.5" ry="12.5" style="stroke:#181818;stroke-width:0.5;" width="205" x="274" y="126.3441"/><text fill="#000000" font-family="sans-serif" font-size="12" lengthAdjust="spacing" textLength="185" x="284" y="149.1722">generic-to-WASM transformation</text><rect fill="#F1F1F1" height="36.3441" rx="12.5" ry="12.5" style="stroke:#181818;stroke-width:0.5;" width="79" x="337" y="182.6882"/><text fill="#000000" font-family="sans-serif" font-size="12" lengthAdjust="spacing" textLength="59" x="347" y="205.5163">WASM API</text><rect fill="#F1F1F1" height="36.3441" rx="12.5" ry="12.5" style="stroke:#181818;stroke-width:0.5;" width="243" x="255" y="239.0323"/><text fill="#000000" font-family="sans-serif" font-size="12" lengthAdjust="spacing" textLength="223" x="265" y="261.8604">WASM code of the Mini-Python program</text><line style="stroke:#181818;stroke-width:1.5;" x1="119" x2="376.5" y1="295.3765" y2="295.3765"/><ellipse cx="254.5" cy="325.3765" fill="none" rx="10" ry="10" style="stroke:#222222;stroke-width:1.5;"/><line style="stroke:#222222;stroke-width:2.5;" x1="248.3128" x2="260.6872" y1="319.1893" y2="331.5636"/><line style="stroke:#222222;stroke-width:2.5;" x1="260.6872" x2="248.3128" y1="319.1893" y2="331.5636"/><line style="stroke:#181818;stroke-width:1.0;" x1="254.5" x2="254.5" y1="30" y2="50"/><polygon fill="#181818" points="250.5,40,254.5,50,258.5,40,254.5,44" style="stroke:#181818;stroke-width:1.0;"/><line style="stroke:#181818;stroke-width:1.0;" x1="119" x2="119" y1="162.6882" y2="182.6882"/><polygon fill="#181818" points="115,172.6882,119,182.6882,123,172.6882,119,176.6882" style="stroke:#181818;stroke-width:1.0;"/><line style="stroke:#181818;stroke-width:1.0;" x1="119" x2="119" y1="219.0323" y2="239.0323"/><polygon fill="#181818" points="115,229.0323,119,239.0323,123,229.0323,119,233.0323" style="stroke:#181818;stroke-width:1.0;"/><line style="stroke:#181818;stroke-width:1.0;" x1="376.5" x2="376.5" y1="162.6882" y2="182.6882"/><polygon fill="#181818" points="372.5,172.6882,376.5,182.6882,380.5,172.6882,376.5,176.6882" style="stroke:#181818;stroke-width:1.0;"/><line style="stroke:#181818;stroke-width:1.0;" x1="376.5" x2="376.5" y1="219.0323" y2="239.0323"/><polygon fill="#181818" points="372.5,229.0323,376.5,239.0323,380.5,229.0323,376.5,233.0323" style="stroke:#181818;stroke-width:1.0;"/><line style="stroke:#181818;stroke-width:1.0;" x1="119" x2="119" y1="107.8441" y2="126.3441"/><polygon fill="#181818" points="115,116.3441,119,126.3441,123,116.3441,119,120.3441" style="stroke:#181818;stroke-width:1.0;"/><line style="stroke:#181818;stroke-width:1.0;" x1="376.5" x2="376.5" y1="107.8441" y2="126.3441"/><polygon fill="#181818" points="372.5,116.3441,376.5,126.3441,380.5,116.3441,376.5,120.3441" style="stroke:#181818;stroke-width:1.0;"/><line style="stroke:#181818;stroke-width:1.0;" x1="119" x2="119" y1="275.3765" y2="295.3765"/><polygon fill="#181818" points="115,285.3765,119,295.3765,123,285.3765,119,289.3765" style="stroke:#181818;stroke-width:1.0;"/><line style="stroke:#181818;stroke-width:1.0;" x1="376.5" x2="376.5" y1="275.3765" y2="295.3765"/><polygon fill="#181818" points="372.5,285.3765,376.5,295.3765,380.5,285.3765,376.5,289.3765" style="stroke:#181818;stroke-width:1.0;"/><line style="stroke:#181818;stroke-width:1.0;" x1="254.5" x2="254.5" y1="86.3441" y2="106.3441"/><polygon fill="#181818" points="250.5,96.3441,254.5,106.3441,258.5,96.3441,254.5,100.3441" style="stroke:#181818;stroke-width:1.0;"/><line style="stroke:#181818;stroke-width:1.0;" x1="254.5" x2="254.5" y1="296.8765" y2="315.3765"/><polygon fill="#181818" points="250.5,305.3765,254.5,315.3765,258.5,305.3765,254.5,309.3765" style="stroke:#181818;stroke-width:1.0;"/><!--SRC=[XO-n2iCm34HtVuL-m3_WJ6cd3e50XywgxJY2H0goElJlMvn0AHsw7NVSEwuQghbGCcUb2FruwLpT5lfutiIVJmzQKbOmHQwJw8f6mfqByNuahHcYZv8oo0GsPnY8oOzFcuLXKocAwq47B4ZyjN7hhyCllxaxkyc_-Cm9zWDlvLu0]--></g></svg>