<?xml version="1.0" encoding="us-ascii" standalone="no"?><svg xmlns="http://www.w3.org/2000/svg" xmlns:xlink="http://www.w3.org/1999/xlink" contentStyleType="text/css" height="491px" preserveAspectRatio="none" style="width:869px;height:491px;background:#FFFFFF;" version="1.1" viewBox="0 0 869 491" width="869px" zoomAndPan="magnify"><defs/><g><!--cluster minipython--><g id="cluster_minipython"><path d="M8.5,6.602 L90.875,6.602 A3.75,3.75 0 0 1 93.375,9.102 L100.375,31.6699 L859.5,31.6699 A2.5,2.5 0 0 1 862,34.1699 L862,482.102 A2.5,2.5 0 0 1 859.5,484.602 L8.5,484.602 A2.5,2.5 0 0 1 6,482.102 L6,9.102 A2.5,2.5 0 0 1 8.5,6.602 " fill="none" style="stroke:#000000;stroke-width:1.5;"/><line style="stroke:#000000;stroke-width:1.5;" x1="6" x2="100.375" y1="31.6699" y2="31.6699"/><text fill="#000000" font-family="sans-serif" font-size="14" font-weight="bold" lengthAdjust="spacing" textLength="81.375" x="10" y="23.5679">minipython</text></g><!--cluster builder--><g id="cluster_builder"><path d="M32.5,52.602 L85.5625,52.602 A3.75,3.75 0 0 1 88.0625,55.102 L95.0625,77.6699 L835.5,77.6699 A2.5,2.5 0 0 1 838,80.1699 L838,458.102 A2.5,2.5 0 0 1 835.5,460.602 L32.5,460.602 A2.5,2.5 0 0 1 30,458.102 L30,55.102 A2.5,2.5 0 0 1 32.5,52.602 " fill="none" style="stroke:#000000;stroke-width:1.5;"/><line style="stroke:#000000;stroke-width:1.5;" x1="30" x2="95.0625" y1="77.6699" y2="77.6699"/><text fill="#000000" font-family="sans-serif" font-size="14" font-weight="bold" lengthAdjust="spacing" textLength="52.0625" x="34" y="69.5679">builder</text></g><!--cluster transform--><g id="cluster_transform"><path d="M56.5,98.602 L128.4375,98.602 A3.75,3.75 0 0 1 130.9375,101.102 L137.9375,123.6699 L811.5,123.6699 A2.5,2.5 0 0 1 814,126.1699 L814,434.102 A2.5,2.5 0 0 1 811.5,436.602 L56.5,436.602 A2.5,2.5 0 0 1 54,434.102 L54,101.102 A2.5,2.5 0 0 1 56.5,98.602 " fill="none" style="stroke:#000000;stroke-width:1.5;"/><line style="stroke:#000000;stroke-width:1.5;" x1="54" x2="137.9375" y1="123.6699" y2="123.6699"/><text fill="#000000" font-family="sans-serif" font-size="14" font-weight="bold" lengthAdjust="spacing" textLength="70.9375" x="58" y="115.5679">transform</text></g><!--class Transformation--><g id="elem_Transformation"><rect codeLine="5" fill="#F1F1F1" height="105.2038" id="Transformation" rx="2.5" ry="2.5" style="stroke:#181818;stroke-width:0.5;" width="511" x="178.5" y="315.002"/><ellipse cx="331.25" cy="331.002" fill="#B4A7E5" rx="11" ry="11" style="stroke:#181818;stroke-width:1.0;"/><path d="M327.6719,335.3457 L330.1406,335.3457 L330.1406,327.2676 L327.6719,327.2676 L327.6719,325.1114 L335.0625,325.1114 L335.0625,327.2676 L332.5938,327.2676 L332.5938,335.3457 L335.0625,335.3457 L335.0625,337.502 L327.6719,337.502 L327.6719,335.3457 Z " fill="#000000"/><text fill="#000000" font-family="sans-serif" font-size="14" font-style="italic" lengthAdjust="spacing" textLength="98" x="351.75" y="336.434">Transformation</text><rect fill="#FFFFFF" height="18.3441" style="stroke:#181818;stroke-width:1.0;stroke-dasharray:2.0,2.0;" width="97" x="595.5" y="312.002"/><text fill="#000000" font-family="sans-serif" font-size="12" font-style="italic" lengthAdjust="spacing" textLength="95" x="596.5" y="325.8301">From, To, Context</text><line style="stroke:#181818;stroke-width:0.5;" x1="179.5" x2="688.5" y1="347.002" y2="347.002"/><line style="stroke:#181818;stroke-width:0.5;" x1="179.5" x2="688.5" y1="355.002" y2="355.002"/><ellipse cx="189.5" cy="370.0359" fill="#84BE84" rx="3" ry="3" style="stroke:#038048;stroke-width:1.0;"/><text fill="#000000" font-family="sans-serif" font-size="14" lengthAdjust="spacing" textLength="485" x="198.5" y="373.9679">To apply(From from, Context context, TransformationManager manager)</text><text fill="#000000" font-family="sans-serif" font-size="14" lengthAdjust="spacing" textLength="4" x="198.5" y="393.0358">&#160;</text><ellipse cx="189.5" cy="408.1718" fill="#84BE84" rx="3" ry="3" style="stroke:#038048;stroke-width:1.0;"/><text fill="#000000" font-family="sans-serif" font-size="14" lengthAdjust="spacing" textLength="222" x="198.5" y="412.1038">Class&lt;Context&gt; getContextClass()</text></g><!--class TransformationManager--><g id="elem_TransformationManager"><rect codeLine="11" fill="#F1F1F1" height="143.3396" id="TransformationManager" rx="2.5" ry="2.5" style="stroke:#181818;stroke-width:0.5;" width="728" x="70" y="136.932"/><ellipse cx="347.25" cy="152.932" fill="#ADD1B2" rx="11" ry="11" style="stroke:#181818;stroke-width:1.0;"/><path d="M347.0469,159.6664 Q344.5625,159.6664 343.2344,158.0257 Q341.9219,156.3539 341.9219,153.2445 Q341.9219,150.1195 343.2344,148.4632 Q344.5625,146.807 347.0469,146.807 Q347.7656,146.807 348.4219,146.9632 Q349.0625,147.1195 349.625,147.4164 L349.625,150.1351 Q349.2656,149.7914 348.9688,149.6039 Q348.6719,149.4007 348.4063,149.2757 Q348.0938,149.1351 347.7813,149.0726 Q347.4844,149.0101 347.1719,149.0101 Q345.8438,149.0101 345.1563,150.0726 Q344.4688,151.1664 344.4688,153.2445 Q344.4688,155.3382 345.1563,156.4007 Q345.8438,157.4789 347.1719,157.4789 Q347.8125,157.4789 348.4063,157.1976 Q348.7031,157.0726 348.9844,156.8851 Q349.2813,156.682 349.625,156.3539 L349.625,159.0726 Q349.0469,159.3695 348.4063,159.5257 Q347.7656,159.6664 347.0469,159.6664 Z " fill="#000000"/><text fill="#000000" font-family="sans-serif" font-size="14" lengthAdjust="spacing" textLength="165" x="367.75" y="158.364">TransformationManager</text><line style="stroke:#181818;stroke-width:0.5;" x1="71" x2="797" y1="168.932" y2="168.932"/><rect fill="none" height="6" style="stroke:#C82930;stroke-width:1.0;" width="6" x="78" y="180.9659"/><text fill="#000000" font-family="sans-serif" font-size="14" lengthAdjust="spacing" textLength="377" x="90" y="187.8979">Map&lt;Class&lt;?&gt;, Transformation&lt;?, ?, ?&gt;&gt; transformations</text><rect fill="none" height="6" style="stroke:#C82930;stroke-width:1.0;" width="6" x="78" y="200.0339"/><text fill="#000000" font-family="sans-serif" font-size="14" lengthAdjust="spacing" textLength="288" x="90" y="206.9658">Map&lt;Object, Object&gt; transformationCache</text><line style="stroke:#181818;stroke-width:0.5;" x1="71" x2="797" y1="215.0678" y2="215.0678"/><ellipse cx="81" cy="230.1018" fill="#84BE84" rx="3" ry="3" style="stroke:#038048;stroke-width:1.0;"/><text fill="#000000" font-family="sans-serif" font-size="14" lengthAdjust="spacing" textLength="173" x="90" y="234.0338">TransformationManager()</text><ellipse cx="81" cy="249.1697" fill="#84BE84" rx="3" ry="3" style="stroke:#038048;stroke-width:1.0;"/><text fill="#000000" font-family="sans-serif" font-size="14" lengthAdjust="spacing" textLength="702" x="90" y="253.1017">&lt;From&gt; void registerTransformation(Transformation&lt;From, ?, ?&gt; transformation, Class&lt;From&gt; fromClass)</text><ellipse cx="81" cy="268.2376" fill="#84BE84" rx="3" ry="3" style="stroke:#038048;stroke-width:1.0;"/><text fill="#000000" font-family="sans-serif" font-size="14" lengthAdjust="spacing" textLength="541" x="90" y="272.1696">&lt;From, To, Context&gt; To transform(From from, Context context, Class&lt;To&gt; toClass)</text></g><!--SRC=[VL7BRiCW4Bpp5NjqL9eliCZ1KczHB_u1Wh5DQxC8Q9Keyh-NXvl4A2r2Mc1dPuVPIVOUF89Lm-YXKrOAhr0JOhZuv8E4MMbbBdv4lJzzgQcJTkyjrwv7EyELG5XAUsbxBYIqlnaUIUetYpE55Yaq631dpzQAk5vQ16xCTAaY3Fg4NN4WSgG5uv7heCd2dEEEtDcQYJjNt_eCqg_dbAXs2Rda0X6V_g2-2tmzSbDdsWChbTG72d4p1dwJSDlwzzD7S9H2ZYMuuMAK3vzuAcdLdW39KWRVg3gmSb0kEByjgfxE84ajcWUtq-SoPVG_tSjknG33r6uq_qukaxSOsk83yK8MyWC0]--></g></svg>