<?xml version="1.0" encoding="us-ascii" standalone="no"?><svg xmlns="http://www.w3.org/2000/svg" xmlns:xlink="http://www.w3.org/1999/xlink" contentStyleType="text/css" height="565px" preserveAspectRatio="none" style="width:380px;height:565px;background:#FFFFFF;" version="1.1" viewBox="0 0 380 565" width="380px" zoomAndPan="magnify"><defs/><g><!--cluster wasm (without caching)--><g id="cluster_wasm (without caching)"><path d="M8.5,390.602 L177.25,390.602 A3.75,3.75 0 0 1 179.75,393.102 L186.75,415.6699 L370.5,415.6699 A2.5,2.5 0 0 1 373,418.1699 L373,556.102 A2.5,2.5 0 0 1 370.5,558.602 L8.5,558.602 A2.5,2.5 0 0 1 6,556.102 L6,393.102 A2.5,2.5 0 0 1 8.5,390.602 " fill="none" style="stroke:#000000;stroke-width:1.5;"/><line style="stroke:#000000;stroke-width:1.5;" x1="6" x2="186.75" y1="415.6699" y2="415.6699"/><text fill="#000000" font-family="sans-serif" font-size="14" font-weight="bold" lengthAdjust="spacing" textLength="167.75" x="10" y="407.5679">wasm (without caching)</text></g><!--cluster wasm (actual)--><g id="cluster_wasm (actual)"><path d="M8.5,198.602 L106.75,198.602 A3.75,3.75 0 0 1 109.25,201.102 L116.25,223.6699 L370.5,223.6699 A2.5,2.5 0 0 1 373,226.1699 L373,364.102 A2.5,2.5 0 0 1 370.5,366.602 L8.5,366.602 A2.5,2.5 0 0 1 6,364.102 L6,201.102 A2.5,2.5 0 0 1 8.5,198.602 " fill="none" style="stroke:#000000;stroke-width:1.5;"/><line style="stroke:#000000;stroke-width:1.5;" x1="6" x2="116.25" y1="223.6699" y2="223.6699"/><text fill="#000000" font-family="sans-serif" font-size="14" font-weight="bold" lengthAdjust="spacing" textLength="97.25" x="10" y="215.5679">wasm (actual)</text></g><!--cluster generic--><g id="cluster_generic"><path d="M8.5,6.602 L63.5625,6.602 A3.75,3.75 0 0 1 66.0625,9.102 L73.0625,31.6699 L370.5,31.6699 A2.5,2.5 0 0 1 373,34.1699 L373,172.102 A2.5,2.5 0 0 1 370.5,174.602 L8.5,174.602 A2.5,2.5 0 0 1 6,172.102 L6,9.102 A2.5,2.5 0 0 1 8.5,6.602 " fill="none" style="stroke:#000000;stroke-width:1.5;"/><line style="stroke:#000000;stroke-width:1.5;" x1="6" x2="73.0625" y1="31.6699" y2="31.6699"/><text fill="#000000" font-family="sans-serif" font-size="14" font-weight="bold" lengthAdjust="spacing" textLength="54.0625" x="10" y="23.5679">generic</text></g><g id="elem_wwf1"><rect fill="#F1F1F1" height="39.0679" style="stroke:#181818;stroke-width:0.5;" width="197" x="160" y="503.072"/><text fill="#000000" font-family="sans-serif" font-size="14" lengthAdjust="spacing" textLength="183" x="167" y="520.0379">FunctionDeclaration(fluppi)</text><line style="stroke:#181818;stroke-width:0.5;" x1="161" x2="356" y1="526.1399" y2="526.1399"/></g><g id="elem_wwf2"><rect fill="#F1F1F1" height="39.0679" style="stroke:#181818;stroke-width:0.5;" width="197" x="160" y="429.072"/><text fill="#000000" font-family="sans-serif" font-size="14" lengthAdjust="spacing" textLength="183" x="167" y="446.0379">FunctionDeclaration(fluppi)</text><line style="stroke:#181818;stroke-width:0.5;" x1="161" x2="356" y1="452.1399" y2="452.1399"/></g><g id="elem_wwc1"><rect fill="#F1F1F1" height="39.0679" style="stroke:#181818;stroke-width:0.5;" width="78" x="22" y="503.072"/><text fill="#000000" font-family="sans-serif" font-size="14" lengthAdjust="spacing" textLength="64" x="29" y="520.0379">Call(arg1)</text><line style="stroke:#181818;stroke-width:0.5;" x1="23" x2="99" y1="526.1399" y2="526.1399"/></g><g id="elem_wwc2"><rect fill="#F1F1F1" height="39.0679" style="stroke:#181818;stroke-width:0.5;" width="78" x="22" y="429.072"/><text fill="#000000" font-family="sans-serif" font-size="14" lengthAdjust="spacing" textLength="64" x="29" y="446.0379">Call(arg2)</text><line style="stroke:#181818;stroke-width:0.5;" x1="23" x2="99" y1="452.1399" y2="452.1399"/></g><g id="elem_wf"><rect fill="#F1F1F1" height="39.0679" style="stroke:#181818;stroke-width:0.5;" width="197" x="160" y="274.072"/><text fill="#000000" font-family="sans-serif" font-size="14" lengthAdjust="spacing" textLength="183" x="167" y="291.0379">FunctionDeclaration(fluppi)</text><line style="stroke:#181818;stroke-width:0.5;" x1="161" x2="356" y1="297.1399" y2="297.1399"/></g><g id="elem_wc1"><rect fill="#F1F1F1" height="39.0679" style="stroke:#181818;stroke-width:0.5;" width="78" x="22" y="311.072"/><text fill="#000000" font-family="sans-serif" font-size="14" lengthAdjust="spacing" textLength="64" x="29" y="328.0379">Call(arg1)</text><line style="stroke:#181818;stroke-width:0.5;" x1="23" x2="99" y1="334.1399" y2="334.1399"/></g><g id="elem_wc2"><rect fill="#F1F1F1" height="39.0679" style="stroke:#181818;stroke-width:0.5;" width="78" x="22" y="237.072"/><text fill="#000000" font-family="sans-serif" font-size="14" lengthAdjust="spacing" textLength="64" x="29" y="254.0379">Call(arg2)</text><line style="stroke:#181818;stroke-width:0.5;" x1="23" x2="99" y1="260.1399" y2="260.1399"/></g><g id="elem_f"><rect fill="#F1F1F1" height="39.0679" style="stroke:#181818;stroke-width:0.5;" width="197" x="160" y="82.072"/><text fill="#000000" font-family="sans-serif" font-size="14" lengthAdjust="spacing" textLength="183" x="167" y="99.0379">FunctionDeclaration(fluppi)</text><line style="stroke:#181818;stroke-width:0.5;" x1="161" x2="356" y1="105.1399" y2="105.1399"/></g><g id="elem_c1"><rect fill="#F1F1F1" height="39.0679" style="stroke:#181818;stroke-width:0.5;" width="78" x="22" y="119.072"/><text fill="#000000" font-family="sans-serif" font-size="14" lengthAdjust="spacing" textLength="64" x="29" y="136.0379">Call(arg1)</text><line style="stroke:#181818;stroke-width:0.5;" x1="23" x2="99" y1="142.1399" y2="142.1399"/></g><g id="elem_c2"><rect fill="#F1F1F1" height="39.0679" style="stroke:#181818;stroke-width:0.5;" width="78" x="22" y="45.072"/><text fill="#000000" font-family="sans-serif" font-size="14" lengthAdjust="spacing" textLength="64" x="29" y="62.0379">Call(arg2)</text><line style="stroke:#181818;stroke-width:0.5;" x1="23" x2="99" y1="68.1399" y2="68.1399"/></g><!--reverse link wwc1 to wwf1--><g id="link_wwc1_wwf1"><path codeLine="11" d="M112.16,522.602 C129.38,522.602 138.6,522.602 159.81,522.602 " fill="none" id="wwc1-backto-wwf1" style="stroke:#181818;stroke-width:1.0;"/><polygon fill="#181818" points="100.16,522.602,106.16,526.602,112.16,522.602,106.16,518.602,100.16,522.602" style="stroke:#181818;stroke-width:1.0;"/></g><!--reverse link wwc2 to wwf2--><g id="link_wwc2_wwf2"><path codeLine="12" d="M112.16,448.602 C129.38,448.602 138.6,448.602 159.81,448.602 " fill="none" id="wwc2-backto-wwf2" style="stroke:#181818;stroke-width:1.0;"/><polygon fill="#181818" points="100.16,448.602,106.16,452.602,112.16,448.602,106.16,444.602,100.16,448.602" style="stroke:#181818;stroke-width:1.0;"/></g><!--reverse link wc1 to wf--><g id="link_wc1_wf"><path codeLine="19" d="M111.9506,321.1499 C129.1706,317.8899 138.6,316.102 159.81,312.092 " fill="none" id="wc1-backto-wf" style="stroke:#181818;stroke-width:1.0;"/><polygon fill="#181818" points="100.16,323.382,106.7993,326.1961,111.9506,321.1499,105.3112,318.3357,100.16,323.382" style="stroke:#181818;stroke-width:1.0;"/></g><!--reverse link wc2 to wf--><g id="link_wc2_wf"><path codeLine="20" d="M111.9506,266.0541 C129.1706,269.3141 138.6,271.102 159.81,275.112 " fill="none" id="wc2-backto-wf" style="stroke:#181818;stroke-width:1.0;"/><polygon fill="#181818" points="100.16,263.822,105.3112,268.8682,111.9506,266.0541,106.7993,261.0079,100.16,263.822" style="stroke:#181818;stroke-width:1.0;"/></g><!--reverse link c1 to f--><g id="link_c1_f"><path codeLine="27" d="M111.9506,129.1499 C129.1706,125.8899 138.6,124.102 159.81,120.092 " fill="none" id="c1-backto-f" style="stroke:#181818;stroke-width:1.0;"/><polygon fill="#181818" points="100.16,131.382,106.7993,134.1961,111.9506,129.1499,105.3112,126.3357,100.16,131.382" style="stroke:#181818;stroke-width:1.0;"/></g><!--reverse link c2 to f--><g id="link_c2_f"><path codeLine="28" d="M111.9506,74.0541 C129.1706,77.3141 138.6,79.102 159.81,83.112 " fill="none" id="c2-backto-f" style="stroke:#181818;stroke-width:1.0;"/><polygon fill="#181818" points="100.16,71.822,105.3112,76.8682,111.9506,74.0541,106.7993,69.0079,100.16,71.822" style="stroke:#181818;stroke-width:1.0;"/></g><!--SRC=[bSzB3i8W40RWVKynwQgQT56keF4UumWKHMWGmi9uTy4M7z7KT5R0p4- -qLnuy1QSahs7WtASlBAcIZKWdL1og2DUpj14vNiRF11IhunSrN2j89NT7rC6wbqmZ-YMaqQ7-TW87OP1fL6yG8oYMnfW7u4DQjsWartfK_UppvxzCPy7OTssBq9kbHTMtRvsHV81zV8LnQpt3xTe2rPCLrQkRqx93NUA5lfcUVEw2JVPneycMORT0G00]--></g></svg>